<?xml version="1.0" encoding="utf-8"?>
<!-- Generator: Adobe Illustrator 21.0.0, SVG Export Plug-In . SVG Version: 6.00 Build 0)  -->
<svg version="1.1" id="Layer_1" xmlns="http://www.w3.org/2000/svg" xmlns:xlink="http://www.w3.org/1999/xlink" x="0px" y="0px"
	 viewBox="0 0 200 200" enable-background="new 0 0 200 200" xml:space="preserve">
<rect x="65" y="35" fill="#141214" width="10" height="10"/>
<g>
	<polygon fill="#FCBEB4" points="165,65 165,75 165,85 175,85 175,75 175,65 	"/>
	<path fill="#FCBEB4" d="M135,65h-10V55h10V45h-10h-10V35h-10H95H85v10H75H65V35H55H45v10H35v10v10h10v10v10v10v10h10v10v10h10v10
		h10h10v10h10h10h10v-10h10h10v-10h10v-10v-10h10V95V85h-10h-10v10h-10V85h10V75h10h10V65h-10H135z M95,55h10h10v10h-10H95H85V55H95
		z M105,85H95H85H75V75h10h10h10V85z"/>
</g>
<g>
	<polygon fill="#FC7664" points="125,155 115,155 105,155 95,155 85,155 85,165 95,165 105,165 115,165 125,165 135,165 135,155 
		135,145 125,145 	"/>
	<rect x="115" y="135" fill="#FC7664" width="10" height="10"/>
	<rect x="75" y="135" fill="#FC7664" width="10" height="10"/>
	<polygon fill="#FC7664" points="25,115 25,125 25,135 35,135 35,145 45,145 55,145 55,135 55,125 45,125 45,115 35,115 	"/>
	<rect x="145" y="105" fill="#FC7664" width="10" height="10"/>
	<rect x="45" y="105" fill="#FC7664" width="10" height="10"/>
	<polygon fill="#FC7664" points="145,75 135,75 135,85 145,85 155,85 155,75 	"/>
	<polygon fill="#FC7664" points="95,85 105,85 105,75 95,75 85,75 75,75 75,85 85,85 	"/>
	<rect x="135" y="45" fill="#FC7664" width="10" height="10"/>
	<rect x="115" y="35" fill="#FC7664" width="10" height="10"/>
	<rect x="75" y="35" fill="#FC7664" width="10" height="10"/>
	<rect x="35" y="35" fill="#FC7664" width="10" height="10"/>
</g>
<g>
	<polygon fill="#040604" points="175,65 175,75 175,85 185,85 185,75 185,65 	"/>
	<polygon fill="#040604" points="115,165 105,165 95,165 85,165 85,175 95,175 105,175 115,175 125,175 135,175 135,165 125,165 	
		"/>
	<polygon fill="#040604" points="95,155 105,155 115,155 125,155 125,145 115,145 105,145 95,145 85,145 75,145 75,155 75,165 
		85,165 85,155 	"/>
	<polygon fill="#040604" points="35,145 35,155 45,155 55,155 55,145 45,145 	"/>
	<polygon fill="#040604" points="65,135 65,125 55,125 55,135 55,145 65,145 75,145 75,135 	"/>
	<rect x="25" y="135" fill="#040604" width="10" height="10"/>
	<polygon fill="#040604" points="145,125 135,125 135,135 125,135 125,145 135,145 135,155 135,165 145,165 145,155 145,145 
		145,135 155,135 155,125 155,115 145,115 	"/>
	<rect x="45" y="115" fill="#040604" width="10" height="10"/>
	<polygon fill="#040604" points="25,115 15,115 15,125 15,135 25,135 25,125 	"/>
	<polygon fill="#040604" points="45,115 45,105 45,95 45,85 45,75 45,65 35,65 35,75 35,85 35,95 35,105 25,105 25,115 35,115 	"/>
	<polygon fill="#040604" points="165,75 165,65 175,65 175,55 165,55 155,55 155,45 145,45 145,55 135,55 125,55 125,65 135,65 
		145,65 155,65 155,75 155,85 155,95 155,105 155,115 165,115 165,105 165,95 175,95 175,85 165,85 	"/>
	<rect x="125" y="85" fill="#040604" width="10" height="10"/>
	<polygon fill="#040604" points="105,65 115,65 115,55 105,55 95,55 85,55 85,65 95,65 	"/>
	<polygon fill="#040604" points="35,45 35,35 25,35 25,45 25,55 25,65 35,65 35,55 	"/>
	<polygon fill="#040604" points="135,35 125,35 125,45 135,45 145,45 145,35 	"/>
	<polygon fill="#040604" points="115,25 105,25 95,25 85,25 75,25 75,35 85,35 95,35 105,35 115,35 125,35 125,25 	"/>
	<polygon fill="#040604" points="55,35 65,35 65,25 55,25 45,25 35,25 35,35 45,35 	"/>
</g>
</svg>
